<?xml version="1.0" encoding="utf-8"?>
<!DOCTYPE svg PUBLIC "-//W3C//DTD SVG 1.1//EN" "http://www.w3.org/Graphics/SVG/1.1/DTD/svg11.dtd">
<svg version="1.1" id="图形" xmlns="http://www.w3.org/2000/svg" xmlns:xlink="http://www.w3.org/1999/xlink" x="0px" y="0px" width="1024px" height="1024px" viewBox="0 0 1024 1024" enable-background="new 0 0 1024 1024" xml:space="preserve">
  <path fill="#272636" d="M256.06144 564.04864l511.87712 0 0-57.6512-511.87712 0 0 57.6512ZM723.43552 220.82432 723.43552 446.2272 300.544 446.2272l0-225.40288L723.43552 220.82432zM361.8816 388.61696l300.8512 0 0-110.20288L361.8816 278.41408 361.8816 388.61696zM631.95136 90.8992c18.39104 28.16 35.75808 60.8256 51.85536 97.91488l-61.52192 22.4256c-15.99488-43.9296-34.63168-84.11136-55.82848-120.34048l-107.04896 0c-17.73568 46.94016-37.76512 87.08096-60.23168 120.34048l-56.58624-22.4256c23.3472-35.00032 42.14784-67.60448 56.58624-97.91488l-157.5936 0 0-57.0368 540.83584 0L782.41792 90.8992 631.95136 90.8992z" transform="translate(0, 812) scale(1, -1)"/>
</svg>
